<mxfile host="65bd71144e">
    <diagram id="AFIrh8_KlaSqahvmB9-h" name="Page-1">
        <mxGraphModel dx="692" dy="1882" grid="1" gridSize="10" guides="1" tooltips="1" connect="1" arrows="1" fold="1" page="1" pageScale="1" pageWidth="827" pageHeight="1169" background="none" math="0" shadow="0">
            <root>
                <mxCell id="0"/>
                <mxCell id="1" parent="0"/>
                <mxCell id="A56SyJnrusSQfsUtSrFm-1" value="User" style="swimlane;fontStyle=0;childLayout=stackLayout;horizontal=1;startSize=26;fillColor=none;horizontalStack=0;resizeParent=1;resizeParentMax=0;resizeLast=0;collapsible=1;marginBottom=0;" parent="1" vertex="1">
                    <mxGeometry x="910" y="70" width="140" height="156" as="geometry"/>
                </mxCell>
                <mxCell id="A56SyJnrusSQfsUtSrFm-2" value="id" style="text;strokeColor=none;fillColor=none;align=left;verticalAlign=top;spacingLeft=4;spacingRight=4;overflow=hidden;rotatable=0;points=[[0,0.5],[1,0.5]];portConstraint=eastwest;" parent="A56SyJnrusSQfsUtSrFm-1" vertex="1">
                    <mxGeometry y="26" width="140" height="26" as="geometry"/>
                </mxCell>
                <mxCell id="A56SyJnrusSQfsUtSrFm-3" value="name" style="text;strokeColor=none;fillColor=none;align=left;verticalAlign=top;spacingLeft=4;spacingRight=4;overflow=hidden;rotatable=0;points=[[0,0.5],[1,0.5]];portConstraint=eastwest;" parent="A56SyJnrusSQfsUtSrFm-1" vertex="1">
                    <mxGeometry y="52" width="140" height="26" as="geometry"/>
                </mxCell>
                <mxCell id="A56SyJnrusSQfsUtSrFm-4" value="email" style="text;strokeColor=none;fillColor=none;align=left;verticalAlign=top;spacingLeft=4;spacingRight=4;overflow=hidden;rotatable=0;points=[[0,0.5],[1,0.5]];portConstraint=eastwest;" parent="A56SyJnrusSQfsUtSrFm-1" vertex="1">
                    <mxGeometry y="78" width="140" height="26" as="geometry"/>
                </mxCell>
                <mxCell id="A56SyJnrusSQfsUtSrFm-55" value="password" style="text;strokeColor=none;fillColor=none;align=left;verticalAlign=top;spacingLeft=4;spacingRight=4;overflow=hidden;rotatable=0;points=[[0,0.5],[1,0.5]];portConstraint=eastwest;" parent="A56SyJnrusSQfsUtSrFm-1" vertex="1">
                    <mxGeometry y="104" width="140" height="26" as="geometry"/>
                </mxCell>
                <mxCell id="A56SyJnrusSQfsUtSrFm-56" value="verified" style="text;strokeColor=none;fillColor=none;align=left;verticalAlign=top;spacingLeft=4;spacingRight=4;overflow=hidden;rotatable=0;points=[[0,0.5],[1,0.5]];portConstraint=eastwest;" parent="A56SyJnrusSQfsUtSrFm-1" vertex="1">
                    <mxGeometry y="130" width="140" height="26" as="geometry"/>
                </mxCell>
                <mxCell id="A56SyJnrusSQfsUtSrFm-47" style="edgeStyle=orthogonalEdgeStyle;rounded=0;orthogonalLoop=1;jettySize=auto;html=1;entryX=0.5;entryY=0;entryDx=0;entryDy=0;endArrow=none;endFill=0;strokeColor=#000000;" parent="1" source="A56SyJnrusSQfsUtSrFm-5" target="A56SyJnrusSQfsUtSrFm-9" edge="1">
                    <mxGeometry relative="1" as="geometry"/>
                </mxCell>
                <mxCell id="A56SyJnrusSQfsUtSrFm-5" value="Resume" style="swimlane;fontStyle=0;childLayout=stackLayout;horizontal=1;startSize=26;fillColor=none;horizontalStack=0;resizeParent=1;resizeParentMax=0;resizeLast=0;collapsible=1;marginBottom=0;" parent="1" vertex="1">
                    <mxGeometry x="585" y="-20" width="145" height="234" as="geometry"/>
                </mxCell>
                <mxCell id="A56SyJnrusSQfsUtSrFm-6" value="name" style="text;strokeColor=none;fillColor=none;align=left;verticalAlign=top;spacingLeft=4;spacingRight=4;overflow=hidden;rotatable=0;points=[[0,0.5],[1,0.5]];portConstraint=eastwest;" parent="A56SyJnrusSQfsUtSrFm-5" vertex="1">
                    <mxGeometry y="26" width="145" height="26" as="geometry"/>
                </mxCell>
                <mxCell id="A56SyJnrusSQfsUtSrFm-7" value="first_name" style="text;strokeColor=none;fillColor=none;align=left;verticalAlign=top;spacingLeft=4;spacingRight=4;overflow=hidden;rotatable=0;points=[[0,0.5],[1,0.5]];portConstraint=eastwest;" parent="A56SyJnrusSQfsUtSrFm-5" vertex="1">
                    <mxGeometry y="52" width="145" height="26" as="geometry"/>
                </mxCell>
                <mxCell id="A56SyJnrusSQfsUtSrFm-8" value="last_name" style="text;strokeColor=none;fillColor=none;align=left;verticalAlign=top;spacingLeft=4;spacingRight=4;overflow=hidden;rotatable=0;points=[[0,0.5],[1,0.5]];portConstraint=eastwest;" parent="A56SyJnrusSQfsUtSrFm-5" vertex="1">
                    <mxGeometry y="78" width="145" height="26" as="geometry"/>
                </mxCell>
                <mxCell id="A56SyJnrusSQfsUtSrFm-58" value="phone_number" style="text;strokeColor=none;fillColor=none;align=left;verticalAlign=top;spacingLeft=4;spacingRight=4;overflow=hidden;rotatable=0;points=[[0,0.5],[1,0.5]];portConstraint=eastwest;" parent="A56SyJnrusSQfsUtSrFm-5" vertex="1">
                    <mxGeometry y="104" width="145" height="26" as="geometry"/>
                </mxCell>
                <mxCell id="A56SyJnrusSQfsUtSrFm-59" value="location" style="text;strokeColor=none;fillColor=none;align=left;verticalAlign=top;spacingLeft=4;spacingRight=4;overflow=hidden;rotatable=0;points=[[0,0.5],[1,0.5]];portConstraint=eastwest;" parent="A56SyJnrusSQfsUtSrFm-5" vertex="1">
                    <mxGeometry y="130" width="145" height="26" as="geometry"/>
                </mxCell>
                <mxCell id="A56SyJnrusSQfsUtSrFm-60" value="linkedin" style="text;strokeColor=none;fillColor=none;align=left;verticalAlign=top;spacingLeft=4;spacingRight=4;overflow=hidden;rotatable=0;points=[[0,0.5],[1,0.5]];portConstraint=eastwest;" parent="A56SyJnrusSQfsUtSrFm-5" vertex="1">
                    <mxGeometry y="156" width="145" height="26" as="geometry"/>
                </mxCell>
                <mxCell id="A56SyJnrusSQfsUtSrFm-61" value="created_at" style="text;strokeColor=none;fillColor=none;align=left;verticalAlign=top;spacingLeft=4;spacingRight=4;overflow=hidden;rotatable=0;points=[[0,0.5],[1,0.5]];portConstraint=eastwest;" parent="A56SyJnrusSQfsUtSrFm-5" vertex="1">
                    <mxGeometry y="182" width="145" height="26" as="geometry"/>
                </mxCell>
                <mxCell id="A56SyJnrusSQfsUtSrFm-62" value="updated_at" style="text;strokeColor=none;fillColor=none;align=left;verticalAlign=top;spacingLeft=4;spacingRight=4;overflow=hidden;rotatable=0;points=[[0,0.5],[1,0.5]];portConstraint=eastwest;" parent="A56SyJnrusSQfsUtSrFm-5" vertex="1">
                    <mxGeometry y="208" width="145" height="26" as="geometry"/>
                </mxCell>
                <mxCell id="A56SyJnrusSQfsUtSrFm-51" style="edgeStyle=orthogonalEdgeStyle;rounded=0;orthogonalLoop=1;jettySize=auto;html=1;endArrow=none;endFill=0;strokeColor=#000000;" parent="1" source="A56SyJnrusSQfsUtSrFm-9" target="A56SyJnrusSQfsUtSrFm-13" edge="1">
                    <mxGeometry relative="1" as="geometry"/>
                </mxCell>
                <mxCell id="A56SyJnrusSQfsUtSrFm-9" value="WorkExperienceCompany" style="swimlane;fontStyle=0;childLayout=stackLayout;horizontal=1;startSize=26;fillColor=none;horizontalStack=0;resizeParent=1;resizeParentMax=0;resizeLast=0;collapsible=1;marginBottom=0;" parent="1" vertex="1">
                    <mxGeometry x="277" y="300" width="174" height="104" as="geometry"/>
                </mxCell>
                <mxCell id="A56SyJnrusSQfsUtSrFm-10" value="name" style="text;strokeColor=none;fillColor=none;align=left;verticalAlign=top;spacingLeft=4;spacingRight=4;overflow=hidden;rotatable=0;points=[[0,0.5],[1,0.5]];portConstraint=eastwest;" parent="A56SyJnrusSQfsUtSrFm-9" vertex="1">
                    <mxGeometry y="26" width="174" height="26" as="geometry"/>
                </mxCell>
                <mxCell id="A56SyJnrusSQfsUtSrFm-11" value="description" style="text;strokeColor=none;fillColor=none;align=left;verticalAlign=top;spacingLeft=4;spacingRight=4;overflow=hidden;rotatable=0;points=[[0,0.5],[1,0.5]];portConstraint=eastwest;" parent="A56SyJnrusSQfsUtSrFm-9" vertex="1">
                    <mxGeometry y="52" width="174" height="26" as="geometry"/>
                </mxCell>
                <mxCell id="A56SyJnrusSQfsUtSrFm-12" value="location" style="text;strokeColor=none;fillColor=none;align=left;verticalAlign=top;spacingLeft=4;spacingRight=4;overflow=hidden;rotatable=0;points=[[0,0.5],[1,0.5]];portConstraint=eastwest;" parent="A56SyJnrusSQfsUtSrFm-9" vertex="1">
                    <mxGeometry y="78" width="174" height="26" as="geometry"/>
                </mxCell>
                <mxCell id="A56SyJnrusSQfsUtSrFm-52" style="edgeStyle=orthogonalEdgeStyle;rounded=0;orthogonalLoop=1;jettySize=auto;html=1;entryX=0.5;entryY=0;entryDx=0;entryDy=0;endArrow=none;endFill=0;strokeColor=#000000;" parent="1" source="A56SyJnrusSQfsUtSrFm-13" target="A56SyJnrusSQfsUtSrFm-37" edge="1">
                    <mxGeometry relative="1" as="geometry"/>
                </mxCell>
                <mxCell id="A56SyJnrusSQfsUtSrFm-13" value="WorkExperienceRole" style="swimlane;fontStyle=0;childLayout=stackLayout;horizontal=1;startSize=26;fillColor=none;horizontalStack=0;resizeParent=1;resizeParentMax=0;resizeLast=0;collapsible=1;marginBottom=0;" parent="1" vertex="1">
                    <mxGeometry x="277" y="430" width="174" height="104" as="geometry"/>
                </mxCell>
                <mxCell id="A56SyJnrusSQfsUtSrFm-14" value="name" style="text;strokeColor=none;fillColor=none;align=left;verticalAlign=top;spacingLeft=4;spacingRight=4;overflow=hidden;rotatable=0;points=[[0,0.5],[1,0.5]];portConstraint=eastwest;" parent="A56SyJnrusSQfsUtSrFm-13" vertex="1">
                    <mxGeometry y="26" width="174" height="26" as="geometry"/>
                </mxCell>
                <mxCell id="A56SyJnrusSQfsUtSrFm-15" value="started_at" style="text;strokeColor=none;fillColor=none;align=left;verticalAlign=top;spacingLeft=4;spacingRight=4;overflow=hidden;rotatable=0;points=[[0,0.5],[1,0.5]];portConstraint=eastwest;" parent="A56SyJnrusSQfsUtSrFm-13" vertex="1">
                    <mxGeometry y="52" width="174" height="26" as="geometry"/>
                </mxCell>
                <mxCell id="A56SyJnrusSQfsUtSrFm-16" value="ended_at" style="text;strokeColor=none;fillColor=none;align=left;verticalAlign=top;spacingLeft=4;spacingRight=4;overflow=hidden;rotatable=0;points=[[0,0.5],[1,0.5]];portConstraint=eastwest;" parent="A56SyJnrusSQfsUtSrFm-13" vertex="1">
                    <mxGeometry y="78" width="174" height="26" as="geometry"/>
                </mxCell>
                <mxCell id="A56SyJnrusSQfsUtSrFm-53" style="edgeStyle=orthogonalEdgeStyle;rounded=0;orthogonalLoop=1;jettySize=auto;html=1;endArrow=none;endFill=0;strokeColor=#000000;" parent="1" source="A56SyJnrusSQfsUtSrFm-17" target="A56SyJnrusSQfsUtSrFm-21" edge="1">
                    <mxGeometry relative="1" as="geometry"/>
                </mxCell>
                <mxCell id="A56SyJnrusSQfsUtSrFm-69" style="edgeStyle=orthogonalEdgeStyle;rounded=0;orthogonalLoop=1;jettySize=auto;html=1;exitX=0.5;exitY=0;exitDx=0;exitDy=0;entryX=0;entryY=0.5;entryDx=0;entryDy=0;endArrow=none;endFill=0;strokeColor=#000000;" parent="1" source="A56SyJnrusSQfsUtSrFm-17" target="A56SyJnrusSQfsUtSrFm-61" edge="1">
                    <mxGeometry relative="1" as="geometry"/>
                </mxCell>
                <mxCell id="A56SyJnrusSQfsUtSrFm-17" value="EducationExperienceUniversity" style="swimlane;fontStyle=0;childLayout=stackLayout;horizontal=1;startSize=26;fillColor=none;horizontalStack=0;resizeParent=1;resizeParentMax=0;resizeLast=0;collapsible=1;marginBottom=0;" parent="1" vertex="1">
                    <mxGeometry x="470" y="300" width="190" height="104" as="geometry"/>
                </mxCell>
                <mxCell id="A56SyJnrusSQfsUtSrFm-18" value="name" style="text;strokeColor=none;fillColor=none;align=left;verticalAlign=top;spacingLeft=4;spacingRight=4;overflow=hidden;rotatable=0;points=[[0,0.5],[1,0.5]];portConstraint=eastwest;" parent="A56SyJnrusSQfsUtSrFm-17" vertex="1">
                    <mxGeometry y="26" width="190" height="26" as="geometry"/>
                </mxCell>
                <mxCell id="A56SyJnrusSQfsUtSrFm-19" value="description" style="text;strokeColor=none;fillColor=none;align=left;verticalAlign=top;spacingLeft=4;spacingRight=4;overflow=hidden;rotatable=0;points=[[0,0.5],[1,0.5]];portConstraint=eastwest;" parent="A56SyJnrusSQfsUtSrFm-17" vertex="1">
                    <mxGeometry y="52" width="190" height="26" as="geometry"/>
                </mxCell>
                <mxCell id="A56SyJnrusSQfsUtSrFm-20" value="location" style="text;strokeColor=none;fillColor=none;align=left;verticalAlign=top;spacingLeft=4;spacingRight=4;overflow=hidden;rotatable=0;points=[[0,0.5],[1,0.5]];portConstraint=eastwest;" parent="A56SyJnrusSQfsUtSrFm-17" vertex="1">
                    <mxGeometry y="78" width="190" height="26" as="geometry"/>
                </mxCell>
                <mxCell id="A56SyJnrusSQfsUtSrFm-67" style="edgeStyle=orthogonalEdgeStyle;rounded=0;orthogonalLoop=1;jettySize=auto;html=1;entryX=0.5;entryY=0;entryDx=0;entryDy=0;endArrow=none;endFill=0;strokeColor=#000000;" parent="1" source="A56SyJnrusSQfsUtSrFm-21" target="A56SyJnrusSQfsUtSrFm-63" edge="1">
                    <mxGeometry relative="1" as="geometry"/>
                </mxCell>
                <mxCell id="A56SyJnrusSQfsUtSrFm-21" value="EducationExperienceDegree" style="swimlane;fontStyle=0;childLayout=stackLayout;horizontal=1;startSize=26;fillColor=none;horizontalStack=0;resizeParent=1;resizeParentMax=0;resizeLast=0;collapsible=1;marginBottom=0;" parent="1" vertex="1">
                    <mxGeometry x="470" y="430" width="190" height="104" as="geometry"/>
                </mxCell>
                <mxCell id="A56SyJnrusSQfsUtSrFm-22" value="name" style="text;strokeColor=none;fillColor=none;align=left;verticalAlign=top;spacingLeft=4;spacingRight=4;overflow=hidden;rotatable=0;points=[[0,0.5],[1,0.5]];portConstraint=eastwest;" parent="A56SyJnrusSQfsUtSrFm-21" vertex="1">
                    <mxGeometry y="26" width="190" height="26" as="geometry"/>
                </mxCell>
                <mxCell id="A56SyJnrusSQfsUtSrFm-23" value="started_at" style="text;strokeColor=none;fillColor=none;align=left;verticalAlign=top;spacingLeft=4;spacingRight=4;overflow=hidden;rotatable=0;points=[[0,0.5],[1,0.5]];portConstraint=eastwest;" parent="A56SyJnrusSQfsUtSrFm-21" vertex="1">
                    <mxGeometry y="52" width="190" height="26" as="geometry"/>
                </mxCell>
                <mxCell id="A56SyJnrusSQfsUtSrFm-24" value="ended_at" style="text;strokeColor=none;fillColor=none;align=left;verticalAlign=top;spacingLeft=4;spacingRight=4;overflow=hidden;rotatable=0;points=[[0,0.5],[1,0.5]];portConstraint=eastwest;" parent="A56SyJnrusSQfsUtSrFm-21" vertex="1">
                    <mxGeometry y="78" width="190" height="26" as="geometry"/>
                </mxCell>
                <mxCell id="A56SyJnrusSQfsUtSrFm-49" style="edgeStyle=orthogonalEdgeStyle;rounded=0;orthogonalLoop=1;jettySize=auto;html=1;entryX=1;entryY=0.5;entryDx=0;entryDy=0;endArrow=none;endFill=0;strokeColor=#000000;" parent="1" source="A56SyJnrusSQfsUtSrFm-25" target="A56SyJnrusSQfsUtSrFm-59" edge="1">
                    <mxGeometry relative="1" as="geometry"/>
                </mxCell>
                <mxCell id="A56SyJnrusSQfsUtSrFm-54" style="edgeStyle=orthogonalEdgeStyle;rounded=0;orthogonalLoop=1;jettySize=auto;html=1;entryX=0.5;entryY=0;entryDx=0;entryDy=0;endArrow=none;endFill=0;strokeColor=#000000;" parent="1" source="A56SyJnrusSQfsUtSrFm-25" target="A56SyJnrusSQfsUtSrFm-33" edge="1">
                    <mxGeometry relative="1" as="geometry"/>
                </mxCell>
                <mxCell id="A56SyJnrusSQfsUtSrFm-25" value="SkillSet" style="swimlane;fontStyle=0;childLayout=stackLayout;horizontal=1;startSize=26;fillColor=none;horizontalStack=0;resizeParent=1;resizeParentMax=0;resizeLast=0;collapsible=1;marginBottom=0;" parent="1" vertex="1">
                    <mxGeometry x="680" y="300" width="140" height="52" as="geometry"/>
                </mxCell>
                <mxCell id="A56SyJnrusSQfsUtSrFm-26" value="name" style="text;strokeColor=none;fillColor=none;align=left;verticalAlign=top;spacingLeft=4;spacingRight=4;overflow=hidden;rotatable=0;points=[[0,0.5],[1,0.5]];portConstraint=eastwest;" parent="A56SyJnrusSQfsUtSrFm-25" vertex="1">
                    <mxGeometry y="26" width="140" height="26" as="geometry"/>
                </mxCell>
                <mxCell id="A56SyJnrusSQfsUtSrFm-29" value="Language" style="swimlane;fontStyle=0;childLayout=stackLayout;horizontal=1;startSize=26;fillColor=none;horizontalStack=0;resizeParent=1;resizeParentMax=0;resizeLast=0;collapsible=1;marginBottom=0;" parent="1" vertex="1">
                    <mxGeometry x="840" y="300" width="140" height="78" as="geometry"/>
                </mxCell>
                <mxCell id="A56SyJnrusSQfsUtSrFm-30" value="name" style="text;strokeColor=none;fillColor=none;align=left;verticalAlign=top;spacingLeft=4;spacingRight=4;overflow=hidden;rotatable=0;points=[[0,0.5],[1,0.5]];portConstraint=eastwest;" parent="A56SyJnrusSQfsUtSrFm-29" vertex="1">
                    <mxGeometry y="26" width="140" height="26" as="geometry"/>
                </mxCell>
                <mxCell id="A56SyJnrusSQfsUtSrFm-31" value="proficiency" style="text;strokeColor=none;fillColor=none;align=left;verticalAlign=top;spacingLeft=4;spacingRight=4;overflow=hidden;rotatable=0;points=[[0,0.5],[1,0.5]];portConstraint=eastwest;" parent="A56SyJnrusSQfsUtSrFm-29" vertex="1">
                    <mxGeometry y="52" width="140" height="26" as="geometry"/>
                </mxCell>
                <mxCell id="A56SyJnrusSQfsUtSrFm-33" value="SkillItem" style="swimlane;fontStyle=0;childLayout=stackLayout;horizontal=1;startSize=26;fillColor=none;horizontalStack=0;resizeParent=1;resizeParentMax=0;resizeLast=0;collapsible=1;marginBottom=0;" parent="1" vertex="1">
                    <mxGeometry x="680" y="390" width="140" height="52" as="geometry"/>
                </mxCell>
                <mxCell id="A56SyJnrusSQfsUtSrFm-34" value="name" style="text;strokeColor=none;fillColor=none;align=left;verticalAlign=top;spacingLeft=4;spacingRight=4;overflow=hidden;rotatable=0;points=[[0,0.5],[1,0.5]];portConstraint=eastwest;" parent="A56SyJnrusSQfsUtSrFm-33" vertex="1">
                    <mxGeometry y="26" width="140" height="26" as="geometry"/>
                </mxCell>
                <mxCell id="A56SyJnrusSQfsUtSrFm-37" value="WorkExperienceRoleItem" style="swimlane;fontStyle=0;childLayout=stackLayout;horizontal=1;startSize=26;fillColor=none;horizontalStack=0;resizeParent=1;resizeParentMax=0;resizeLast=0;collapsible=1;marginBottom=0;" parent="1" vertex="1">
                    <mxGeometry x="277" y="560" width="174" height="52" as="geometry"/>
                </mxCell>
                <mxCell id="A56SyJnrusSQfsUtSrFm-38" value="description" style="text;strokeColor=none;fillColor=none;align=left;verticalAlign=top;spacingLeft=4;spacingRight=4;overflow=hidden;rotatable=0;points=[[0,0.5],[1,0.5]];portConstraint=eastwest;" parent="A56SyJnrusSQfsUtSrFm-37" vertex="1">
                    <mxGeometry y="26" width="174" height="26" as="geometry"/>
                </mxCell>
                <mxCell id="A56SyJnrusSQfsUtSrFm-46" style="edgeStyle=orthogonalEdgeStyle;orthogonalLoop=1;jettySize=auto;html=1;exitX=0.5;exitY=0;exitDx=0;exitDy=0;entryX=1;entryY=0.5;entryDx=0;entryDy=0;strokeColor=#000000;rounded=0;endArrow=none;endFill=0;" parent="1" source="A56SyJnrusSQfsUtSrFm-1" target="A56SyJnrusSQfsUtSrFm-7" edge="1">
                    <mxGeometry relative="1" as="geometry"/>
                </mxCell>
                <mxCell id="A56SyJnrusSQfsUtSrFm-50" style="edgeStyle=orthogonalEdgeStyle;rounded=0;orthogonalLoop=1;jettySize=auto;html=1;exitX=1;exitY=0.5;exitDx=0;exitDy=0;entryX=0.25;entryY=0;entryDx=0;entryDy=0;endArrow=none;endFill=0;strokeColor=#000000;" parent="1" source="A56SyJnrusSQfsUtSrFm-8" target="A56SyJnrusSQfsUtSrFm-29" edge="1">
                    <mxGeometry relative="1" as="geometry"/>
                </mxCell>
                <mxCell id="A56SyJnrusSQfsUtSrFm-63" value="EducationExperienceDegreeItem" style="swimlane;fontStyle=0;childLayout=stackLayout;horizontal=1;startSize=26;fillColor=none;horizontalStack=0;resizeParent=1;resizeParentMax=0;resizeLast=0;collapsible=1;marginBottom=0;" parent="1" vertex="1">
                    <mxGeometry x="470" y="560" width="190" height="52" as="geometry"/>
                </mxCell>
                <mxCell id="A56SyJnrusSQfsUtSrFm-64" value="description" style="text;strokeColor=none;fillColor=none;align=left;verticalAlign=top;spacingLeft=4;spacingRight=4;overflow=hidden;rotatable=0;points=[[0,0.5],[1,0.5]];portConstraint=eastwest;" parent="A56SyJnrusSQfsUtSrFm-63" vertex="1">
                    <mxGeometry y="26" width="190" height="26" as="geometry"/>
                </mxCell>
            </root>
        </mxGraphModel>
    </diagram>
</mxfile>